<svg width="46" height="48" viewBox="0 0 46 48" fill="none" xmlns="http://www.w3.org/2000/svg">
<path fill-rule="evenodd" clip-rule="evenodd" d="M14.8175 7.41639C14.3063 8.10682 14.365 9.09167 15.0109 9.71667C15.6984 10.4042 16.8213 10.4042 17.5088 9.71667L21.1525 6.05V15.5375H24.6817V6.05L28.3255 9.71667L28.5231 9.88712C29.2135 10.3985 30.1984 10.3417 30.8234 9.71667C31.1671 9.37292 31.3505 8.91458 31.3505 8.45625C31.3505 8.02083 31.1671 7.5625 30.8234 7.21875L24.1546 0.527083L23.9467 0.340267C23.6505 0.117333 23.2838 0 22.9171 0C22.4359 0 22.0005 0.183333 21.6567 0.527083L14.988 7.21875L14.8175 7.41639ZM9.69641 15.5492C4.30354 15.804 0 20.3405 0 25.8671V37.2455L0.0110872 37.7325C0.261475 43.2207 4.72149 47.6213 10.1979 47.6213H35.6583L36.1369 47.61C41.5298 47.3553 45.8333 42.8181 45.8333 37.2688V25.9137L45.8222 25.4249C45.5706 19.9166 41.0896 15.538 35.6354 15.538H24.6812V29.5278L24.6649 29.7737C24.5465 30.657 23.799 31.3231 22.9167 31.3231C21.9312 31.3231 21.1521 30.5304 21.1521 29.5278V15.538H10.175L9.69641 15.5492Z" fill="white"/>
</svg>
