<svg width="20" height="20" viewBox="0 0 20 20" fill="none" xmlns="http://www.w3.org/2000/svg">
<path d="M19.2079 3.24297C19.6402 3.24297 20 3.56596 20 3.97696V4.35696C20 4.75795 19.6402 5.09095 19.2079 5.09095H0.793171C0.359844 5.09095 0 4.75795 0 4.35696V3.97696C0 3.56596 0.359844 3.24297 0.793171 3.24297H4.03285C4.69094 3.24297 5.26367 2.82197 5.41171 2.22798L5.58137 1.54598C5.84504 0.616994 6.71277 0 7.70586 0H12.2941C13.2764 0 14.1539 0.616994 14.4078 1.49699L14.5894 2.22698C14.7363 2.82197 15.3091 3.24297 15.9682 3.24297H19.2079Z" fill="#FFA6A6"/>
<path d="M17.562 17.134C17.9003 14.2971 18.4924 7.55712 18.4924 7.48913C18.514 7.28313 18.4395 7.08813 18.2914 6.93113C18.1326 6.78413 17.9316 6.69713 17.7101 6.69713H2.29836C2.07575 6.69713 1.86395 6.78413 1.71699 6.93113C1.56786 7.08813 1.49438 7.28313 1.50519 7.48913C1.50717 7.50162 1.52842 7.73903 1.56395 8.13595C1.72176 9.8992 2.1613 14.8102 2.44532 17.134C2.64632 18.846 3.89442 19.922 5.70229 19.961C7.09736 19.99 8.53458 20 10.0042 20C11.3885 20 12.7944 19.99 14.2327 19.961C16.1032 19.932 17.3502 18.875 17.562 17.134Z" fill="#FFA6A6"/>
</svg>
