<svg width="20" height="20" viewBox="0 0 20 20" fill="none" xmlns="http://www.w3.org/2000/svg">
<path d="M7.08489 18.9199L16.8475 6.29493C17.3781 5.61412 17.5668 4.827 17.3899 4.02554C17.2366 3.29695 16.7886 2.60419 16.1165 2.07865L14.4776 0.776737C13.051 -0.357956 11.2824 -0.238515 10.2684 1.0634L9.17183 2.48594C9.03034 2.66391 9.06571 2.92668 9.24257 3.07001C9.24257 3.07001 12.0134 5.29162 12.0723 5.3394C12.261 5.51856 12.4025 5.75745 12.4378 6.0441C12.4968 6.60548 12.1077 7.13102 11.53 7.20269C11.2588 7.23852 10.9994 7.15491 10.8107 6.99964L7.89844 4.68247C7.75695 4.57617 7.54472 4.59886 7.42682 4.74219L0.505709 13.7003C0.0576649 14.2617 -0.0956134 14.9903 0.0576649 15.695L0.941963 19.529C0.989125 19.7321 1.16599 19.8754 1.37822 19.8754L5.26913 19.8276C5.97657 19.8157 6.63684 19.4932 7.08489 18.9199Z" fill="#A6DFFF"/>
<path d="M12.533 17.7258H18.8775C19.4965 17.7258 20 18.2359 20 18.8629C20 19.4912 19.4965 20 18.8775 20H12.533C11.914 20 11.4105 19.4912 11.4105 18.8629C11.4105 18.2359 11.914 17.7258 12.533 17.7258Z" fill="#A6DFFF"/>
</svg>
