<svg width="924" height="676" viewBox="0 0 924 676" fill="none" xmlns="http://www.w3.org/2000/svg">
<path fill-rule="evenodd" clip-rule="evenodd" d="M701.891 82.904C673.057 94.4765 642.258 101.896 610.061 104.604C643.842 85.9851 669.692 55.7159 682.788 19.4447C651.055 36.8016 616.578 48.5902 580.859 54.298C557.903 27.9944 526.902 10.0025 492.669 3.11545C458.436 -3.77156 422.886 0.831698 391.539 16.2106C360.193 31.5894 334.802 56.8834 319.31 88.1656C306.984 113.055 305.76 162.307 305.774 181.396C266.178 179.027 227.822 168.719 189.06 152.849C124.675 125.157 68.8553 80.1693 19.1056 25.5027C6.68114 54.761 -1.93508 86.1872 1.19425 120.614C6.15095 161.904 32.8136 197.904 66.0717 226.073C44.0498 226.962 19.9964 216.702 0 206.176C0.121984 232.232 5.28398 255.239 16.7165 279.4C36.2071 317.531 73.5472 342.838 116.222 356.604C104.876 359.099 93.3443 360.238 81.1959 361.379C71.3265 362.172 60.4997 362.499 50.1502 359.787C71.4335 411.663 114.774 457.047 174.302 462.046C188.461 553.69 258.763 628.518 349.601 659.292C392.95 673.827 432.736 675.48 476.968 675.48C548.218 675.48 621.263 656.784 674.843 611.811C702.927 588.512 725.543 559.322 741.087 526.308C750.947 505.366 757.809 483.21 761.525 460.493C814.975 450.893 854.003 408.163 873.85 359.787C863.5 362.499 852.674 362.172 842.804 361.379C830.656 360.238 819.124 359.099 807.778 356.604C850.453 342.838 887.793 317.531 907.283 279.4C918.716 255.239 923.878 232.232 924 206.176C904.004 216.702 879.95 226.962 857.928 226.073C891.186 197.904 917.849 161.904 922.806 120.614C925.935 86.1872 917.319 54.761 904.894 25.5027C855.145 80.1693 799.325 125.157 734.94 152.849C697.407 168.216 660.255 178.368 621.989 181.146C621.256 176.182 619.991 166.95 619.944 162.123C651.719 140.819 679.444 114.027 701.819 83.0036L701.891 82.904ZM518.173 211.393C582.511 251.544 643.647 294.895 667.52 339.118V339.089C750.49 489.217 614.535 627.707 493.427 623.924L500.414 619.269C519.349 605.008 533.796 585.622 542.045 563.408C561.255 506.133 566.641 445.13 557.766 385.378C553.141 356.529 546.13 328.113 536.805 300.423C529.226 282.945 519.897 268.019 511.592 254.733C503.308 241.478 496.043 229.855 492.554 218.958C486.615 196.282 485.034 172.687 487.896 149.422L502.743 156.405C500.414 170.37 503.325 202.665 518.173 211.393ZM498.085 420.263C505.15 438.91 509.275 458.54 510.312 478.452H510.341C510.726 501.678 507.585 524.829 501.025 547.115C497.769 569.819 486.266 590.531 468.71 605.304C475.373 597.587 479.891 588.256 481.811 578.246C481.989 577.16 482.166 576.082 482.342 575.011C484.481 562.019 486.469 549.947 486.469 534.895C488.008 518.053 486.928 501.074 483.267 484.562C480.515 471.879 476.718 459.517 473.228 448.15C470.072 437.875 467.167 428.413 465.508 420.263C465.508 431.904 468.58 445.364 471.808 459.507C473.743 467.986 475.735 476.71 477.153 485.435C478.735 502.467 478.735 519.609 477.153 536.641C476.7 560.12 471.862 583.309 462.888 605.013C456.077 602.431 453.245 598.902 449.653 594.426C448.793 593.354 447.889 592.228 446.876 591.048C440.583 582.095 435.585 572.3 432.029 561.953C428.138 553.305 425.304 544.22 423.586 534.895C421.862 523.494 422.414 511.865 425.213 500.679C428.011 489.493 432.999 478.972 439.889 469.723C451.086 457.484 458.383 442.19 460.85 425.791C456.124 441.151 447.019 454.801 434.649 465.068C420.546 485.161 413.952 509.566 416.017 534.022C416.929 544.103 419.589 553.948 423.877 563.117C427.164 573.266 431.557 583.023 436.978 592.211C441.035 597.603 445.727 602.487 450.952 606.759C434.191 603.195 418.4 596.048 404.663 585.81C375.204 560.369 355.711 525.324 349.64 486.889C351.373 467.653 357.868 449.151 368.541 433.05C379.214 416.949 393.729 403.756 410.777 394.66C423.92 387.32 435.031 376.829 443.111 364.133C451.191 351.436 455.986 336.932 457.065 321.923C454.225 336.247 448.403 349.813 439.978 361.742C431.552 373.672 420.71 383.697 408.157 391.168C389.17 399.718 373.07 413.584 361.807 431.089C350.543 448.594 344.598 468.987 344.691 489.799C345.01 510.7 350.492 531.199 360.65 549.472C370.808 567.745 385.327 583.226 402.916 594.539C405.231 595.971 407.671 597.653 410.268 599.444C414.53 602.382 419.214 605.612 424.46 608.504C401.996 605.117 381.737 593.115 367.981 575.046C367.981 574.173 364.197 570.39 364.197 570.39C338.073 540.877 318.7 506.028 307.427 468.269C303.33 455.286 302.53 441.488 305.098 428.118C322.959 368.335 358.214 344.145 394.462 319.275C395.436 318.607 396.41 317.938 397.385 317.268C406.701 311.159 416.017 305.048 424.46 298.648C442.518 284.611 448.908 250.49 453.31 226.984C454.018 223.206 454.674 219.703 455.319 216.601C453.943 221.036 452.574 225.634 451.193 230.271C443.516 256.053 435.474 283.059 423.877 290.21C414.525 296.684 404.804 302.61 394.765 307.958C371.906 320.038 351.687 336.552 335.291 356.535C318.895 376.518 306.651 399.567 299.276 424.336C295.809 438.997 296.617 454.344 301.605 468.56C312.817 507.771 332.717 543.957 359.83 574.435L363.614 578.508C374.114 590.083 387.173 599.05 401.752 604.693C417.855 611.254 434.391 616.698 451.243 620.986C304.225 613.13 246 508.71 246 412.145C246 338.32 318.46 283.476 380.876 236.234C394.96 225.573 408.533 215.3 420.646 205.284C437.531 192.482 434.62 159.896 418.317 118L480.909 147.095C478.047 170.252 478.833 193.715 483.238 216.63C486.335 226.548 493.722 238.471 502.052 251.918C512.515 268.807 524.466 288.097 531.273 308.831C551.371 386.201 551.371 467.417 531.273 544.787C526.622 560.006 518.67 574.013 507.983 585.81C512.259 578.262 515.676 570.26 518.173 561.953C535.532 513.937 540.83 462.395 533.602 411.854C530.986 394.576 526.294 377.676 519.628 361.521C510.352 339.272 498.475 317.732 490.476 303.226C485.923 294.968 482.627 288.99 481.782 286.457C474.181 256.762 469.885 226.32 468.973 195.682C469.337 228.565 473.142 261.319 480.326 293.411C481.095 295.716 483.609 300.526 487.093 307.191C494.162 320.718 505.225 341.886 513.806 365.274C519.801 383.197 524.281 401.591 527.198 420.263C531.665 463.986 528.114 508.157 516.717 550.606C512.539 566.416 505.644 581.38 496.338 594.83C501.235 585.569 505.138 575.816 507.983 565.735C515.6 537.289 519.032 507.886 518.173 478.452C515.355 455.782 509.58 433.579 500.996 412.407C495.147 399.369 488.436 386.733 480.909 374.584C475.162 356.302 472.025 337.3 471.593 318.141C469.764 338.335 471.338 358.693 476.251 378.367C484.436 391.841 491.73 405.836 498.085 420.263Z" fill="white"/>
</svg>
