<svg width="20" height="13" viewBox="0 0 20 13" fill="none" xmlns="http://www.w3.org/2000/svg">
<path d="M19.939 9.14853C19.814 8.84448 19.5167 8.61814 19.189 8.61814H17.5674V3.78374C17.5674 2.29389 16.3546 1.08107 14.8647 1.08107H10.5404C9.94348 1.08107 9.45937 1.56451 9.45937 2.16214C9.45937 2.75976 9.94348 3.2432 10.5404 3.2432H14.8647C15.162 3.2432 15.4052 3.48644 15.4052 3.78374V8.61814H13.7836C13.6233 8.61821 13.4665 8.66582 13.3332 8.75496C13.1999 8.84409 13.096 8.97075 13.0347 9.11892C12.9733 9.26709 12.9573 9.43012 12.9886 9.5874C13.0198 9.74469 13.0971 9.88916 13.2104 10.0026L15.9131 12.7059C16.0708 12.8951 16.2802 12.9728 16.4863 12.9728C16.6924 12.9728 16.9012 12.8936 17.0596 12.7353L19.7623 10.0319C19.993 9.80055 20.064 9.45258 19.939 9.14853ZM9.45937 9.72961H5.1351C4.8378 9.72961 4.59456 9.48637 4.59456 9.18907V4.32427H6.21617C6.37653 4.3242 6.53328 4.27658 6.66659 4.18745C6.7999 4.09831 6.9038 3.97166 6.96514 3.82349C7.02649 3.67532 7.04253 3.51229 7.01125 3.355C6.97996 3.19772 6.90275 3.05324 6.78937 2.93983L4.0867 0.236484C3.92903 0.0790531 3.71958 0 3.5135 0C3.30742 0 3.09796 0.079053 2.93918 0.237497L0.236511 2.94084C0.00577027 3.17226 -0.0638235 3.52023 0.0618506 3.82428C0.187525 4.12833 0.483129 4.32427 0.810828 4.32427H2.43243V9.18907C2.43243 10.6789 3.64525 11.8917 5.1351 11.8917H9.45937C10.0563 11.8917 10.5404 11.4083 10.5404 10.8107C10.5404 10.213 10.0573 9.72961 9.45937 9.72961Z" fill="#A6DFFF"/>
</svg>
