<svg width="41" height="36" viewBox="0 0 41 36" fill="none" xmlns="http://www.w3.org/2000/svg">
<path d="M27.5717 35.5539C26.5621 35.1389 25.8105 34.1517 25.8105 33.0636L25.8105 27.6791L9.75798 27.6791C4.81097 27.6791 0.783812 23.6519 0.783813 18.7049L0.783813 4.34626C0.783813 2.36409 2.38907 0.756592 4.37348 0.756592C6.35789 0.756592 7.96315 2.36409 7.96315 4.34626L7.96315 18.7049C7.96315 19.6921 8.77082 20.4998 9.75798 20.4998L25.8105 20.4998L25.8105 15.1153C25.8108 14.5828 25.9689 14.0623 26.2648 13.6196C26.5608 13.177 26.9814 12.832 27.4734 12.6283C27.9654 12.4246 28.5067 12.3713 29.029 12.4752C29.5512 12.5791 30.031 12.8355 30.4075 13.212L39.384 22.1861C40.0121 22.7097 40.2702 23.4052 40.2702 24.0894C40.2702 24.7737 40.0072 25.467 39.4814 25.9931L30.505 34.9672C29.7367 35.7334 28.5813 35.969 27.5717 35.5539Z" fill="#ECEEEE"/>
</svg>
